<?xml version="1.0" encoding="UTF-8"?>
<svg width="640" height="480" viewBox="0 0 640 480" fill="none" xmlns="http://www.w3.org/2000/svg">
  <defs>
    <linearGradient id="grad1" x1="0" y1="0" x2="1" y2="1">
      <stop offset="0%" stop-color="#4f46e5" />
      <stop offset="100%" stop-color="#22c55e" />
    </linearGradient>
    <linearGradient id="grad2" x1="0" y1="0" x2="1" y2="1">
      <stop offset="0%" stop-color="#ec4899" />
      <stop offset="100%" stop-color="#f97316" />
    </linearGradient>
    <linearGradient id="grad3" x1="0" y1="0" x2="1" y2="1">
      <stop offset="0%" stop-color="#2563eb" />
      <stop offset="100%" stop-color="#14b8a6" />
    </linearGradient>
  </defs>
  <rect width="640" height="480" rx="32" fill="url(#grad1)" opacity="0.9"/>
  <g transform="translate(80 120)">
    <path d="M20 0h140v240H20z" fill="#ffffff" opacity="0.9" />
    <path d="M20 0h140v24H20z" fill="url(#grad2)" />
    <path d="M170 16h8v208h-8z" fill="#d1d5db" />
    <path d="M38 48h104v16H38z" fill="#e5e7eb" />
    <path d="M38 80h104v16H38z" fill="#e5e7eb" />
    <path d="M38 112h104v16H38z" fill="#e5e7eb" />
    <path d="M38 144h104v16H38z" fill="#e5e7eb" />
    <path d="M38 176h104v16H38z" fill="#e5e7eb" />
  </g>
  <g transform="translate(260 100)">
    <path d="M0 0h140v260H0z" fill="#ffffff" opacity="0.9" />
    <path d="M0 0h140v24H0z" fill="url(#grad3)" />
    <path d="M10 38h120v18H10z" fill="#e5e7eb" />
    <path d="M10 74h120v18H10z" fill="#e5e7eb" />
    <path d="M10 110h120v18H10z" fill="#e5e7eb" />
    <path d="M10 146h120v18H10z" fill="#e5e7eb" />
    <path d="M10 182h120v18H10z" fill="#e5e7eb" />
  </g>
  <g transform="translate(180 220)">
    <path d="M0 0h300v140H0z" fill="#ffffff" opacity="0.9" />
    <path d="M0 0h300v20H0z" fill="#f59e0b" opacity="0.95" />
    <path d="M20 50h260v14H20z" fill="#e5e7eb" />
    <path d="M20 80h260v14H20z" fill="#e5e7eb" />
    <path d="M20 110h260v14H20z" fill="#e5e7eb" />
  </g>
  <text x="320" y="450" fill="#ffffff" font-family="Segoe UI, Tahoma, Geneva, Verdana, sans-serif" font-size="18" text-anchor="middle" opacity="0.9">Perpustakaan Sekolah</text>
</svg>
